<svg xmlns="http://www.w3.org/2000/svg" width="19.129" height="20" viewBox="0 0 19.129 20" fill="none">
  <path d="M 13.212 8.061 C 13.468 9.46 14.683 10.52 16.145 10.52 C 17.793 10.52 19.129 9.173 19.129 7.511 C 19.129 5.85 17.793 4.503 16.145 4.503 C 14.683 4.503 13.468 5.563 13.212 6.962 L 9.5 6.962 L 9.5 6.965 C 9.349 6.969 9.202 6.983 9.058 7.007 L 9.723 5.844 C 11.053 6.32 12.571 5.789 13.302 4.513 C 14.126 3.074 13.638 1.234 12.21 0.404 C 10.783 -0.427 8.959 0.066 8.135 1.504 C 7.404 2.781 7.707 4.372 8.781 5.295 L 6.925 8.536 L 6.926 8.536 C 6.855 8.667 6.793 8.802 6.741 8.943 L 6.076 7.781 C 7.149 6.858 7.452 5.267 6.721 3.99 C 5.898 2.552 4.073 2.059 2.646 2.89 C 1.219 3.72 0.73 5.56 1.554 6.999 C 2.285 8.275 3.803 8.806 5.133 8.33 L 6.989 11.571 L 6.99 11.571 C 7.067 11.699 7.153 11.82 7.248 11.935 L 5.917 11.935 C 5.661 10.535 4.445 9.476 2.984 9.476 C 1.336 9.476 0 10.823 0 12.484 C 0 14.145 1.336 15.492 2.984 15.492 C 4.445 15.492 5.661 14.432 5.917 13.033 L 9.629 13.033 L 9.629 13.031 C 9.78 13.028 9.929 13.014 10.073 12.989 L 9.405 14.156 C 8.076 13.68 6.557 14.211 5.826 15.487 C 5.003 16.926 5.491 18.766 6.918 19.596 C 8.345 20.427 10.17 19.934 10.994 18.496 C 11.725 17.219 11.422 15.628 10.348 14.705 L 12.204 11.464 L 12.201 11.462 C 12.273 11.331 12.336 11.194 12.388 11.052 L 13.054 12.216 C 11.98 13.139 11.678 14.73 12.408 16.006 C 13.232 17.445 15.057 17.938 16.484 17.107 C 17.911 16.277 18.4 14.437 17.576 12.998 C 16.845 11.722 15.327 11.191 13.997 11.666 L 12.141 8.425 L 12.139 8.426 C 12.062 8.298 11.975 8.176 11.88 8.061 L 13.213 8.061 L 13.212 8.061 Z M 11.751 9.998 L 10.657 11.908 L 8.47 11.908 L 7.375 9.998 L 8.47 8.089 L 10.657 8.089 L 11.751 9.998 Z M 16.145 5.601 C 17.191 5.601 18.039 6.456 18.039 7.511 C 18.039 8.565 17.191 9.421 16.145 9.421 C 15.099 9.421 14.251 8.565 14.251 7.511 C 14.251 6.456 15.099 5.601 16.145 5.601 Z M 5.085 7.149 C 4.179 7.677 3.02 7.364 2.497 6.45 C 1.974 5.537 2.284 4.368 3.19 3.841 C 4.096 3.314 5.255 3.627 5.778 4.54 C 6.301 5.454 5.991 6.622 5.085 7.149 Z M 2.983 14.394 C 1.936 14.394 1.088 13.538 1.088 12.484 C 1.088 11.429 1.937 10.574 2.983 10.574 C 4.028 10.574 4.877 11.429 4.877 12.484 C 4.877 13.538 4.028 14.394 2.983 14.394 Z M 14.043 12.848 C 14.949 12.32 16.108 12.633 16.631 13.547 C 17.154 14.46 16.844 15.629 15.938 16.156 C 15.032 16.683 13.873 16.37 13.35 15.457 C 12.827 14.543 13.137 13.375 14.043 12.848 Z M 9.078 2.054 C 9.601 1.14 10.76 0.827 11.666 1.355 C 12.572 1.882 12.882 3.05 12.359 3.964 C 11.836 4.877 10.677 5.19 9.771 4.663 C 8.865 4.135 8.555 2.967 9.078 2.054 Z M 10.05 17.946 C 9.526 18.859 8.368 19.172 7.462 18.645 C 6.556 18.117 6.245 16.949 6.768 16.036 C 7.292 15.122 8.45 14.809 9.356 15.337 C 10.262 15.864 10.573 17.032 10.05 17.946 Z" fill="currentColor" fill-rule="nonzero"></path>
  <path d="M 13.212 8.061 L 13.324 7.837 L 12.875 7.611 L 12.966 8.106 L 13.212 8.061 Z M 13.212 6.962 L 13.212 7.212 L 13.42 7.212 L 13.458 7.007 L 13.212 6.962 Z M 9.5 6.962 L 9.5 6.712 L 9.25 6.712 L 9.25 6.962 L 9.5 6.962 Z M 9.5 6.965 L 9.505 7.215 L 9.75 7.21 L 9.75 6.965 L 9.5 6.965 Z M 9.058 7.007 L 8.841 6.883 L 8.578 7.342 L 9.099 7.254 L 9.058 7.007 Z M 9.723 5.844 L 9.807 5.609 L 9.61 5.538 L 9.506 5.72 L 9.723 5.844 Z M 13.302 4.513 L 13.519 4.637 L 13.519 4.637 L 13.302 4.513 Z M 8.135 1.504 L 8.352 1.629 L 8.352 1.629 L 8.135 1.504 Z M 8.781 5.295 L 8.998 5.419 L 9.1 5.24 L 8.944 5.106 L 8.781 5.295 Z M 6.925 8.536 L 6.708 8.412 L 6.493 8.786 L 6.925 8.786 L 6.925 8.536 Z M 6.926 8.536 L 7.145 8.655 L 7.345 8.286 L 6.926 8.286 L 6.926 8.536 Z M 6.741 8.943 L 6.524 9.068 L 6.792 9.535 L 6.976 9.029 L 6.741 8.943 Z M 6.076 7.781 L 5.913 7.592 L 5.756 7.726 L 5.859 7.905 L 6.076 7.781 Z M 6.721 3.99 L 6.938 3.866 L 6.938 3.866 L 6.721 3.99 Z M 1.554 6.999 L 1.337 7.123 L 1.337 7.123 L 1.554 6.999 Z M 5.133 8.33 L 5.35 8.206 L 5.246 8.024 L 5.049 8.095 L 5.133 8.33 Z M 6.989 11.571 L 6.772 11.696 L 6.844 11.821 L 6.989 11.821 L 6.989 11.571 Z M 6.99 11.571 L 7.204 11.442 L 7.131 11.321 L 6.99 11.321 L 6.99 11.571 Z M 7.248 11.935 L 7.248 12.185 L 7.777 12.185 L 7.441 11.776 L 7.248 11.935 Z M 5.917 11.935 L 5.671 11.98 L 5.709 12.185 L 5.917 12.185 L 5.917 11.935 Z M 5.917 13.033 L 5.917 12.783 L 5.709 12.783 L 5.671 12.988 L 5.917 13.033 Z M 9.629 13.033 L 9.629 13.283 L 9.879 13.283 L 9.879 13.033 L 9.629 13.033 Z M 9.629 13.031 L 9.624 12.781 L 9.379 12.787 L 9.379 13.031 L 9.629 13.031 Z M 10.073 12.989 L 10.29 13.113 L 10.554 12.653 L 10.031 12.743 L 10.073 12.989 Z M 9.405 14.156 L 9.321 14.391 L 9.518 14.462 L 9.622 14.28 L 9.405 14.156 Z M 5.826 15.487 L 5.609 15.363 L 5.609 15.363 L 5.826 15.487 Z M 10.994 18.496 L 10.777 18.371 L 10.777 18.371 L 10.994 18.496 Z M 10.348 14.705 L 10.131 14.581 L 10.029 14.76 L 10.185 14.894 L 10.348 14.705 Z M 12.204 11.464 L 12.421 11.588 L 12.542 11.376 L 12.334 11.25 L 12.204 11.464 Z M 12.201 11.462 L 11.982 11.342 L 11.867 11.552 L 12.072 11.676 L 12.201 11.462 Z M 12.388 11.052 L 12.605 10.928 L 12.339 10.463 L 12.153 10.966 L 12.388 11.052 Z M 13.054 12.216 L 13.217 12.405 L 13.374 12.271 L 13.271 12.091 L 13.054 12.216 Z M 12.408 16.006 L 12.191 16.131 L 12.191 16.131 L 12.408 16.006 Z M 17.576 12.998 L 17.793 12.874 L 17.793 12.874 L 17.576 12.998 Z M 13.997 11.666 L 13.78 11.791 L 13.884 11.972 L 14.081 11.902 L 13.997 11.666 Z M 12.141 8.425 L 12.358 8.301 L 12.224 8.068 L 12.001 8.218 L 12.141 8.425 Z M 12.139 8.426 L 11.925 8.556 L 12.061 8.78 L 12.279 8.634 L 12.139 8.426 Z M 11.88 8.061 L 11.88 7.811 L 11.349 7.811 L 11.688 8.22 L 11.88 8.061 Z M 13.213 8.061 L 13.213 8.311 L 13.325 7.838 L 13.213 8.061 Z M 11.751 9.998 L 11.968 10.123 L 12.039 9.998 L 11.968 9.874 L 11.751 9.998 Z M 10.657 11.908 L 10.657 12.158 L 10.802 12.158 L 10.874 12.033 L 10.657 11.908 Z M 8.47 11.908 L 8.253 12.033 L 8.325 12.158 L 8.47 12.158 L 8.47 11.908 Z M 7.375 9.998 L 7.159 9.874 L 7.087 9.998 L 7.159 10.123 L 7.375 9.998 Z M 8.47 8.089 L 8.47 7.839 L 8.325 7.839 L 8.253 7.964 L 8.47 8.089 Z M 10.657 8.089 L 10.874 7.964 L 10.802 7.839 L 10.657 7.839 L 10.657 8.089 Z M 5.085 7.149 L 4.959 6.933 L 4.959 6.933 L 5.085 7.149 Z M 2.497 6.45 L 2.714 6.326 L 2.714 6.326 L 2.497 6.45 Z M 3.19 3.841 L 3.316 4.057 L 3.316 4.057 L 3.19 3.841 Z M 5.778 4.54 L 5.561 4.664 L 5.561 4.664 L 5.778 4.54 Z M 14.043 12.848 L 14.169 13.064 L 14.169 13.064 L 14.043 12.848 Z M 16.631 13.547 L 16.414 13.671 L 16.414 13.671 L 16.631 13.547 Z M 15.938 16.156 L 15.812 15.94 L 15.812 15.94 L 15.938 16.156 Z M 13.35 15.457 L 13.567 15.333 L 13.567 15.332 L 13.35 15.457 Z M 12.966 8.106 C 13.243 9.62 14.559 10.77 16.145 10.77 L 16.145 10.27 C 14.808 10.27 13.693 9.3 13.458 8.016 L 12.966 8.106 Z M 16.145 10.77 C 17.933 10.77 19.379 9.309 19.379 7.511 L 18.879 7.511 C 18.879 9.036 17.653 10.27 16.145 10.27 L 16.145 10.77 Z M 19.379 7.511 C 19.379 5.714 17.933 4.253 16.145 4.253 L 16.145 4.753 C 17.653 4.753 18.879 5.986 18.879 7.511 L 19.379 7.511 Z M 16.145 4.253 C 14.559 4.253 13.243 5.403 12.966 6.917 L 13.458 7.007 C 13.693 5.724 14.808 4.753 16.145 4.753 L 16.145 4.253 Z M 13.212 6.712 L 9.5 6.712 L 9.5 7.212 L 13.212 7.212 L 13.212 6.712 Z M 9.25 6.962 L 9.25 6.965 L 9.75 6.965 L 9.75 6.962 L 9.25 6.962 Z M 9.494 6.715 C 9.332 6.719 9.172 6.734 9.016 6.761 L 9.099 7.254 C 9.231 7.231 9.367 7.218 9.505 7.215 L 9.494 6.715 Z M 9.275 7.131 L 9.94 5.969 L 9.506 5.72 L 8.841 6.883 L 9.275 7.131 Z M 9.639 6.08 C 11.082 6.596 12.727 6.019 13.519 4.637 L 13.085 4.388 C 12.415 5.558 11.024 6.044 9.807 5.609 L 9.639 6.08 Z M 13.519 4.637 C 14.411 3.08 13.883 1.088 12.336 0.187 L 12.085 0.62 C 13.392 1.381 13.841 3.068 13.085 4.388 L 13.519 4.637 Z M 12.336 0.187 C 10.788 -0.713 8.81 -0.178 7.918 1.38 L 8.352 1.629 C 9.107 0.309 10.778 -0.141 12.085 0.62 L 12.336 0.187 Z M 7.918 1.38 C 7.126 2.762 7.455 4.485 8.618 5.485 L 8.944 5.106 C 7.959 4.26 7.681 2.799 8.352 1.629 L 7.918 1.38 Z M 8.564 5.171 L 6.708 8.412 L 7.141 8.661 L 8.998 5.419 L 8.564 5.171 Z M 6.925 8.786 L 6.926 8.786 L 6.926 8.286 L 6.925 8.286 L 6.925 8.786 Z M 6.706 8.417 C 6.63 8.557 6.562 8.704 6.506 8.858 L 6.976 9.029 C 7.023 8.901 7.08 8.776 7.145 8.655 L 6.706 8.417 Z M 6.958 8.819 L 6.293 7.657 L 5.859 7.905 L 6.524 9.068 L 6.958 8.819 Z M 6.239 7.971 C 7.402 6.971 7.729 5.248 6.938 3.866 L 6.504 4.115 C 7.175 5.285 6.897 6.746 5.913 7.592 L 6.239 7.971 Z M 6.938 3.866 C 6.046 2.308 4.068 1.773 2.52 2.673 L 2.772 3.106 C 4.078 2.345 5.749 2.795 6.504 4.115 L 6.938 3.866 Z M 2.52 2.673 C 0.973 3.574 0.445 5.566 1.337 7.123 L 1.771 6.874 C 1.015 5.554 1.464 3.867 2.772 3.106 L 2.52 2.673 Z M 1.337 7.123 C 2.129 8.505 3.775 9.082 5.217 8.566 L 5.049 8.095 C 3.832 8.53 2.441 8.044 1.771 6.874 L 1.337 7.123 Z M 4.916 8.455 L 6.772 11.696 L 7.206 11.447 L 5.35 8.206 L 4.916 8.455 Z M 6.989 11.821 L 6.99 11.821 L 6.99 11.321 L 6.989 11.321 L 6.989 11.821 Z M 6.776 11.701 C 6.86 11.839 6.953 11.97 7.055 12.094 L 7.441 11.776 C 7.354 11.67 7.274 11.559 7.204 11.442 L 6.776 11.701 Z M 7.248 11.685 L 5.917 11.685 L 5.917 12.185 L 7.248 12.185 L 7.248 11.685 Z M 6.163 11.89 C 5.886 10.375 4.57 9.226 2.984 9.226 L 2.984 9.726 C 4.321 9.726 5.436 10.696 5.671 11.98 L 6.163 11.89 Z M 2.984 9.226 C 1.196 9.226 -0.25 10.687 -0.25 12.484 L 0.25 12.484 C 0.25 10.959 1.476 9.726 2.984 9.726 L 2.984 9.226 Z M -0.25 12.484 C -0.25 14.281 1.196 15.742 2.984 15.742 L 2.984 15.242 C 1.476 15.242 0.25 14.009 0.25 12.484 L -0.25 12.484 Z M 2.984 15.742 C 4.57 15.742 5.886 14.592 6.163 13.078 L 5.671 12.988 C 5.436 14.272 4.321 15.242 2.984 15.242 L 2.984 15.742 Z M 5.917 13.283 L 9.629 13.283 L 9.629 12.783 L 5.917 12.783 L 5.917 13.283 Z M 9.879 13.033 L 9.879 13.031 L 9.379 13.031 L 9.379 13.033 L 9.879 13.033 Z M 9.634 13.281 C 9.797 13.278 9.958 13.263 10.115 13.236 L 10.031 12.743 C 9.899 12.765 9.762 12.779 9.624 12.781 L 9.634 13.281 Z M 9.856 12.865 L 9.188 14.031 L 9.622 14.28 L 10.29 13.113 L 9.856 12.865 Z M 9.49 13.92 C 8.047 13.404 6.401 13.981 5.609 15.363 L 6.043 15.612 C 6.713 14.442 8.104 13.956 9.321 14.391 L 9.49 13.92 Z M 5.609 15.363 C 4.718 16.92 5.246 18.912 6.793 19.813 L 7.044 19.38 C 5.737 18.619 5.287 16.932 6.043 15.612 L 5.609 15.363 Z M 6.793 19.813 C 8.34 20.713 10.318 20.178 11.211 18.62 L 10.777 18.371 C 10.022 19.691 8.35 20.141 7.044 19.38 L 6.793 19.813 Z M 11.211 18.62 C 12.002 17.238 11.674 15.515 10.511 14.515 L 10.185 14.894 C 11.169 15.74 11.447 17.201 10.777 18.371 L 11.211 18.62 Z M 10.565 14.829 L 12.421 11.588 L 11.987 11.339 L 10.131 14.581 L 10.565 14.829 Z M 12.334 11.25 L 12.331 11.248 L 12.072 11.676 L 12.075 11.678 L 12.334 11.25 Z M 12.421 11.582 C 12.498 11.44 12.566 11.292 12.622 11.139 L 12.153 10.966 C 12.105 11.096 12.048 11.222 11.982 11.342 L 12.421 11.582 Z M 12.171 11.177 L 12.837 12.34 L 13.271 12.091 L 12.605 10.928 L 12.171 11.177 Z M 12.891 12.026 C 11.728 13.026 11.4 14.749 12.191 16.131 L 12.625 15.882 C 11.955 14.711 12.233 13.251 13.217 12.405 L 12.891 12.026 Z M 12.191 16.131 C 13.084 17.689 15.062 18.224 16.61 17.323 L 16.358 16.891 C 15.052 17.652 13.381 17.201 12.625 15.882 L 12.191 16.131 Z M 16.61 17.323 C 18.156 16.423 18.684 14.431 17.793 12.874 L 17.359 13.122 C 18.115 14.443 17.666 16.13 16.358 16.891 L 16.61 17.323 Z M 17.793 12.874 C 17.001 11.491 15.356 10.915 13.913 11.431 L 14.081 11.902 C 15.298 11.466 16.689 11.952 17.359 13.122 L 17.793 12.874 Z M 14.214 11.542 L 12.358 8.301 L 11.924 8.55 L 13.78 11.791 L 14.214 11.542 Z M 12.001 8.218 L 12 8.219 L 12.279 8.634 L 12.28 8.633 L 12.001 8.218 Z M 12.353 8.297 C 12.27 8.159 12.176 8.026 12.073 7.902 L 11.688 8.22 C 11.774 8.325 11.854 8.437 11.925 8.556 L 12.353 8.297 Z M 11.88 8.311 L 13.213 8.311 L 13.213 7.811 L 11.88 7.811 L 11.88 8.311 Z M 13.325 7.838 L 13.324 7.837 L 13.099 8.284 L 13.1 8.284 L 13.325 7.838 Z M 11.534 9.874 L 10.44 11.784 L 10.874 12.033 L 11.968 10.123 L 11.534 9.874 Z M 10.657 11.658 L 8.47 11.658 L 8.47 12.158 L 10.657 12.158 L 10.657 11.658 Z M 8.686 11.784 L 7.592 9.874 L 7.159 10.123 L 8.253 12.033 L 8.686 11.784 Z M 7.592 10.123 L 8.686 8.213 L 8.253 7.964 L 7.159 9.874 L 7.592 10.123 Z M 8.47 8.339 L 10.657 8.339 L 10.657 7.839 L 8.47 7.839 L 8.47 8.339 Z M 10.44 8.213 L 11.534 10.123 L 11.968 9.874 L 10.874 7.964 L 10.44 8.213 Z M 16.145 5.851 C 17.051 5.851 17.789 6.592 17.789 7.511 L 18.289 7.511 C 18.289 6.32 17.331 5.351 16.145 5.351 L 16.145 5.851 Z M 17.789 7.511 C 17.789 8.429 17.051 9.171 16.145 9.171 L 16.145 9.671 C 17.331 9.671 18.289 8.701 18.289 7.511 L 17.789 7.511 Z M 16.145 9.171 C 15.239 9.171 14.501 8.429 14.501 7.511 L 14.001 7.511 C 14.001 8.701 14.959 9.671 16.145 9.671 L 16.145 9.171 Z M 14.501 7.511 C 14.501 6.593 15.239 5.851 16.145 5.851 L 16.145 5.351 C 14.959 5.351 14.001 6.32 14.001 7.511 L 14.501 7.511 Z M 4.959 6.933 C 4.174 7.39 3.168 7.12 2.714 6.326 L 2.28 6.574 C 2.871 7.607 4.184 7.963 5.211 7.365 L 4.959 6.933 Z M 2.714 6.326 C 2.259 5.531 2.53 4.515 3.316 4.057 L 3.065 3.625 C 2.039 4.222 1.689 5.542 2.28 6.574 L 2.714 6.326 Z M 3.316 4.057 C 4.102 3.6 5.107 3.87 5.561 4.664 L 5.995 4.416 C 5.404 3.383 4.091 3.027 3.065 3.625 L 3.316 4.057 Z M 5.561 4.664 C 6.017 5.46 5.745 6.476 4.959 6.933 L 5.21 7.365 C 6.236 6.769 6.586 5.448 5.995 4.416 L 5.561 4.664 Z M 2.983 14.144 C 2.076 14.144 1.338 13.402 1.338 12.484 L 0.838 12.484 C 0.838 13.674 1.796 14.644 2.983 14.644 L 2.983 14.144 Z M 1.338 12.484 C 1.338 11.566 2.077 10.824 2.983 10.824 L 2.983 10.324 C 1.797 10.324 0.838 11.293 0.838 12.484 L 1.338 12.484 Z M 2.983 10.824 C 3.888 10.824 4.627 11.566 4.627 12.484 L 5.127 12.484 C 5.127 11.293 4.168 10.324 2.983 10.324 L 2.983 10.824 Z M 4.627 12.484 C 4.627 13.402 3.888 14.144 2.983 14.144 L 2.983 14.644 C 4.168 14.644 5.127 13.674 5.127 12.484 L 4.627 12.484 Z M 14.169 13.064 C 14.954 12.607 15.96 12.877 16.414 13.671 L 16.848 13.423 C 16.257 12.389 14.944 12.034 13.918 12.632 L 14.169 13.064 Z M 16.414 13.671 C 16.87 14.466 16.598 15.482 15.812 15.94 L 16.063 16.372 C 17.089 15.775 17.439 14.454 16.848 13.423 L 16.414 13.671 Z M 15.812 15.94 C 15.027 16.397 14.021 16.126 13.567 15.333 L 13.133 15.581 C 13.724 16.614 15.037 16.97 16.063 16.372 L 15.812 15.94 Z M 13.567 15.332 C 13.112 14.537 13.383 13.521 14.169 13.064 L 13.918 12.632 C 12.892 13.228 12.542 14.549 13.133 15.581 L 13.567 15.332 Z M 9.295 2.178 C 9.75 1.384 10.755 1.113 11.54 1.571 L 11.792 1.138 C 10.765 0.541 9.453 0.896 8.861 1.929 L 9.295 2.178 Z M 11.54 1.571 C 12.326 2.029 12.598 3.044 12.142 3.839 L 12.576 4.088 C 13.167 3.056 12.817 1.736 11.792 1.138 L 11.54 1.571 Z M 12.142 3.839 C 11.687 4.633 10.682 4.904 9.897 4.447 L 9.646 4.879 C 10.673 5.477 11.984 5.121 12.576 4.088 L 12.142 3.839 Z M 9.897 4.447 C 9.111 3.989 8.84 2.973 9.295 2.178 L 8.861 1.929 C 8.27 2.961 8.62 4.282 9.646 4.879 L 9.897 4.447 Z M 9.833 17.822 C 9.378 18.616 8.373 18.886 7.588 18.429 L 7.336 18.861 C 8.363 19.459 9.675 19.103 10.266 18.07 L 9.833 17.822 Z M 7.588 18.429 C 6.801 17.971 6.53 16.955 6.985 16.16 L 6.552 15.912 C 5.961 16.944 6.311 18.264 7.336 18.861 L 7.588 18.429 Z M 6.985 16.16 C 7.44 15.366 8.445 15.096 9.23 15.553 L 9.482 15.121 C 8.455 14.523 7.143 14.879 6.552 15.912 L 6.985 16.16 Z M 9.23 15.553 C 10.017 16.011 10.288 17.027 9.833 17.822 L 10.266 18.07 C 10.858 17.038 10.507 15.718 9.482 15.121 L 9.23 15.553 Z" fill="currentColor" fill-rule="nonzero"></path>
</svg>